<svg width="392" height="487" viewBox="0 0 392 487" fill="none" xmlns="http://www.w3.org/2000/svg">
<path d="M189.363 2.91687C186.43 5.98354 186.43 6.91687 186.43 43.5835V81.1835H170.83C157.23 81.1835 154.163 81.5835 148.43 84.3835C144.696 85.9835 139.763 89.7169 137.23 92.5169C129.496 101.317 128.563 104.917 128.03 128.65L127.496 150.117L117.363 154.384C96.6963 162.917 75.363 177.717 57.0963 195.85C23.2296 229.85 4.02963 272.65 0.42963 322.517C-0.37037 334.25 -0.237037 335.45 2.42963 338.784L5.22963 342.517L64.6963 342.784L124.03 343.184L126.963 353.184C130.83 366.25 135.763 374.784 145.763 384.517C173.763 412.25 218.03 412.25 245.763 384.517C255.763 374.65 260.83 366.25 264.563 353.184L267.496 343.184L326.83 342.784L386.296 342.517L389.096 338.784C391.763 335.45 392.03 334.25 391.096 323.184C388.296 284.384 376.03 249.317 354.83 219.317C335.496 192.117 301.63 165.317 271.496 153.184L264.03 150.117L263.496 128.65C262.963 104.917 262.03 101.317 254.296 92.5169C251.763 89.7169 246.83 85.9835 243.096 84.3835C237.363 81.5835 234.296 81.1835 220.83 81.1835H205.096V43.4502C205.096 5.71687 205.096 5.58354 202.03 2.78354C198.03 -0.949793 192.963 -0.949793 189.363 2.91687ZM237.763 102.784C243.63 107.317 245.096 112.784 245.096 129.184C245.096 137.184 244.696 143.85 244.163 143.85C243.496 143.717 239.23 142.784 234.43 141.717C229.363 140.517 215.896 139.45 202.43 139.05C180.163 138.25 169.763 139.184 149.896 143.45L146.163 144.25L146.563 126.65L147.096 108.917L152.03 104.384L157.096 99.8502H195.63C233.096 99.8502 234.163 99.9835 237.763 102.784ZM225.763 159.317C303.23 172.784 363.363 236.384 371.496 313.184L372.563 323.85H195.763H18.963L20.0296 313.184C25.2296 264.784 52.963 217.584 93.363 189.184C113.096 175.317 140.696 163.717 164.696 159.317C179.23 156.784 210.963 156.65 225.763 159.317ZM247.763 345.05C247.763 346.384 245.63 351.717 243.096 356.917C237.23 368.517 226.963 378.384 216.03 382.65C205.363 386.917 186.296 387.05 175.763 382.784C164.83 378.517 154.163 368.384 148.563 356.917C140.563 341.05 135.763 342.517 195.763 342.517C245.63 342.517 247.763 342.65 247.763 345.05Z" fill="black"/>
<path d="M81.4963 403.317C80.563 403.717 75.6297 409.05 70.4297 415.184C62.2963 424.784 60.963 427.05 61.363 430.65C61.8963 436.384 67.4963 440.65 72.2963 439.05C77.6297 437.184 94.4297 416.517 94.4297 411.717C94.4297 405.184 87.763 400.784 81.4963 403.317Z" fill="black"/>
<path d="M299.096 405.183C294.43 410.25 295.896 414.65 306.296 426.65C318.296 440.517 322.43 442.383 328.43 436.383C332.696 431.983 330.963 426.783 321.096 415.183C315.896 409.05 310.696 403.717 309.63 403.317C305.63 401.85 301.496 402.517 299.096 405.183Z" fill="black"/>
<path d="M192.163 443.85C187.496 445.717 186.43 449.584 186.43 465.184C186.43 479.05 186.563 480.117 189.763 483.184C191.496 485.05 194.296 486.517 195.763 486.517C197.363 486.517 200.03 485.05 201.763 483.184C204.963 480.117 205.096 479.184 205.096 464.784C205.096 452.117 204.696 449.05 202.83 446.784C199.896 443.45 196.03 442.384 192.163 443.85Z" fill="black"/>
</svg>
